<svg width="32" height="33" viewBox="0 0 32 33" fill="none" xmlns="http://www.w3.org/2000/svg">
<path d="M5.33334 24.5C4.95556 24.5 4.63912 24.372 4.384 24.116C4.12889 23.86 4.00089 23.5436 4 23.1667C3.99912 22.7898 4.12712 22.4733 4.384 22.2173C4.64089 21.9613 4.95734 21.8333 5.33334 21.8333H26.6667C27.0444 21.8333 27.3613 21.9613 27.6173 22.2173C27.8733 22.4733 28.0009 22.7898 28 23.1667C27.9991 23.5436 27.8711 23.8604 27.616 24.1173C27.3609 24.3742 27.0444 24.5018 26.6667 24.5H5.33334ZM5.33334 17.8333C4.95556 17.8333 4.63912 17.7053 4.384 17.4493C4.12889 17.1933 4.00089 16.8769 4 16.5C3.99912 16.1231 4.12712 15.8067 4.384 15.5507C4.64089 15.2947 4.95734 15.1667 5.33334 15.1667H26.6667C27.0444 15.1667 27.3613 15.2947 27.6173 15.5507C27.8733 15.8067 28.0009 16.1231 28 16.5C27.9991 16.8769 27.8711 17.1938 27.616 17.4507C27.3609 17.7076 27.0444 17.8351 26.6667 17.8333H5.33334ZM5.33334 11.1667C4.95556 11.1667 4.63912 11.0387 4.384 10.7827C4.12889 10.5267 4.00089 10.2102 4 9.83333C3.99912 9.45644 4.12712 9.14 4.384 8.884C4.64089 8.628 4.95734 8.5 5.33334 8.5H26.6667C27.0444 8.5 27.3613 8.628 27.6173 8.884C27.8733 9.14 28.0009 9.45644 28 9.83333C27.9991 10.2102 27.8711 10.5271 27.616 10.784C27.3609 11.0409 27.0444 11.1684 26.6667 11.1667H5.33334Z" fill="white"/>
</svg>
